# xmcd
#
# Track frame offsets:
#	150
#	19115
#	39975
#	58947
#
# Disc length: 1060 seconds
#
# Revision: 0
# Processed by: cddbd v1.4PL0 Copyright (c) Steve Scherf et al.
# Submitted via: audiograbber 1.82.01
#
DISCID=2c042204
DTITLE=Jon Secada - Angel
DYEAR=1992
DGENRE=Pop
TTITLE0=Angel (Radio Edit)
TTITLE1=Angel (Album Version)
TTITLE2=Angel (Spanglish Edit)
TTITLE3=Angel (Spanish Album Version)
EXTD=CD Single
EXTT0=
EXTT1=
EXTT2=
EXTT3=
PLAYORDER=
